<svg width="26" height="46" viewBox="0 0 26 46" fill="none" xmlns="http://www.w3.org/2000/svg">
<mask id="path-1-outside-1_52_170" maskUnits="userSpaceOnUse" x="0" y="0" width="26" height="46" fill="black">
<rect fill="white" width="26" height="46"/>
<path d="M25 23L2.75 45.25L1.25 43.75L22 23L1.25 2.25L2.75 0.75L25 23Z"/>
</mask>
<path d="M25 23L2.75 45.25L1.25 43.75L22 23L1.25 2.25L2.75 0.75L25 23Z" fill="#F5F5F5" fill-opacity="0.8"/>
<path d="M25 23L25.2121 23.2121L25.4243 23L25.2121 22.7879L25 23ZM2.75 45.25L2.53787 45.4621L2.75 45.6743L2.96213 45.4621L2.75 45.25ZM1.25 43.75L1.03787 43.5379L0.825736 43.75L1.03787 43.9621L1.25 43.75ZM22 23L22.2121 23.2121L22.4243 23L22.2121 22.7879L22 23ZM1.25 2.25L1.03787 2.03787L0.825736 2.25L1.03787 2.46213L1.25 2.25ZM2.75 0.75L2.96213 0.537868L2.75 0.325736L2.53787 0.537868L2.75 0.75ZM24.7879 22.7879L2.53787 45.0379L2.96213 45.4621L25.2121 23.2121L24.7879 22.7879ZM2.96213 45.0379L1.46213 43.5379L1.03787 43.9621L2.53787 45.4621L2.96213 45.0379ZM1.46213 43.9621L22.2121 23.2121L21.7879 22.7879L1.03787 43.5379L1.46213 43.9621ZM22.2121 22.7879L1.46213 2.03787L1.03787 2.46213L21.7879 23.2121L22.2121 22.7879ZM1.46213 2.46213L2.96213 0.962132L2.53787 0.537868L1.03787 2.03787L1.46213 2.46213ZM2.53787 0.962132L24.7879 23.2121L25.2121 22.7879L2.96213 0.537868L2.53787 0.962132Z" fill="#F5F5F5" fill-opacity="0.8" mask="url(#path-1-outside-1_52_170)"/>
</svg>
