<svg width="26" height="46" viewBox="0 0 26 46" fill="none" xmlns="http://www.w3.org/2000/svg">
<mask id="path-1-outside-1_52_167" maskUnits="userSpaceOnUse" x="0" y="0" width="26" height="46" fill="black">
<rect fill="white" width="26" height="46"/>
<path d="M1 23L23.25 0.75L24.75 2.25L4 23L24.75 43.75L23.25 45.25L1 23Z"/>
</mask>
<path d="M1 23L23.25 0.75L24.75 2.25L4 23L24.75 43.75L23.25 45.25L1 23Z" fill="#F5F5F5" fill-opacity="0.8"/>
<path d="M1 23L0.787868 22.7879L0.575736 23L0.787868 23.2121L1 23ZM23.25 0.75L23.4621 0.537868L23.25 0.325736L23.0379 0.537868L23.25 0.75ZM24.75 2.25L24.9621 2.46213L25.1743 2.25L24.9621 2.03787L24.75 2.25ZM4 23L3.78787 22.7879L3.57574 23L3.78787 23.2121L4 23ZM24.75 43.75L24.9621 43.9621L25.1743 43.75L24.9621 43.5379L24.75 43.75ZM23.25 45.25L23.0379 45.4621L23.25 45.6743L23.4621 45.4621L23.25 45.25ZM1.21213 23.2121L23.4621 0.962132L23.0379 0.537868L0.787868 22.7879L1.21213 23.2121ZM23.0379 0.962132L24.5379 2.46213L24.9621 2.03787L23.4621 0.537868L23.0379 0.962132ZM24.5379 2.03787L3.78787 22.7879L4.21213 23.2121L24.9621 2.46213L24.5379 2.03787ZM3.78787 23.2121L24.5379 43.9621L24.9621 43.5379L4.21213 22.7879L3.78787 23.2121ZM24.5379 43.5379L23.0379 45.0379L23.4621 45.4621L24.9621 43.9621L24.5379 43.5379ZM23.4621 45.0379L1.21213 22.7879L0.787868 23.2121L23.0379 45.4621L23.4621 45.0379Z" fill="#F5F5F5" fill-opacity="0.8" mask="url(#path-1-outside-1_52_167)"/>
</svg>
